<svg version="1.0" xmlns="http://www.w3.org/2000/svg" viewBox="265.5 0 694.5 684.5"><style>text{user-select:none;text-anchor:middle;dominant-baseline:middle;font-family:sans-serif;fill:#ffffff;filter:drop-shadow(0 0 1px #000000);text-shadow:0 0 1px #000000;}svg&gt;text{font-size:xx-large}circle{opacity:.3;stroke-width:.5;fill:none;stroke:#000000}circle:first-of-type{fill:#1c8235}#values&gt;g&gt;circle{opacity:0.7;fill:#ffffff;stroke-width:1;stroke:#000000}polygon{stroke-width:1px;opacity:.7;fill:#1c8235;stroke:#000000}#values&gt;g&gt;*{transition:fill.4s}#values&gt;g:hover&gt;*{fill:#fff700}</style><text x="634.5" y="25">example</text><g id="rings"><circle cx="634.5" cy="340.5" r="265.5"></circle><circle cx="634.5" cy="340.5" r="238.95000000000002"></circle><circle cx="634.5" cy="340.5" r="212.4"></circle><circle cx="634.5" cy="340.5" r="185.85"></circle><circle cx="634.5" cy="340.5" r="159.3"></circle><circle cx="634.5" cy="340.5" r="132.75"></circle><circle cx="634.5" cy="340.5" r="106.2"></circle><circle cx="634.5" cy="340.5" r="79.65"></circle><circle cx="634.5" cy="340.5" r="53.1"></circle><circle cx="634.5" cy="340.5" r="26.55"></circle></g><polygon points="634.5,128.1 690.8210551215085,284.1789448784915 820.35,340.5 728.3684252025142,434.3684252025142 634.5,579.45 540.6315747974859,434.3684252025142 475.20000000000005,340.5 540.6315747974858,246.63157479748583 "></polygon><g id="values"><g><circle cx="634.5" cy="128.1" r="5"></circle><text x="634.5" y="170.57999999999998">8</text><text x="634.5" y="65">label1</text></g><g><circle cx="690.8210551215085" cy="284.1789448784915" r="5"></circle><text x="679.5568440972069" y="295.4431559027932">3</text><text x="829.3079182168939" y="145.69208178310618">label2</text></g><g><circle cx="820.35" cy="340.5" r="5"></circle><text x="783.1800000000001" y="340.5">7</text><text x="910" y="340.5">label3</text></g><g><circle cx="728.3684252025142" cy="434.3684252025142" r="5"></circle><text x="709.5947401620114" y="415.59474016201136">5</text><text x="829.3079182168939" y="535.3079182168938">label4</text></g><g><circle cx="634.5" cy="579.45" r="5"></circle><text x="634.5" y="531.66">9</text><text x="634.5" y="616">label5</text></g><g><circle cx="540.6315747974859" cy="434.3684252025142" r="5"></circle><text x="559.4052598379886" y="415.59474016201136">5</text><text x="439.6920817831062" y="535.3079182168939">label7</text></g><g><circle cx="475.20000000000005" cy="340.5" r="5"></circle><text x="507.06" y="340.5">6</text><text x="359" y="340.50000000000006">label8</text></g><g><circle cx="540.6315747974858" cy="246.63157479748583" r="5"></circle><text x="559.4052598379886" y="265.40525983798864">5</text><text x="439.6920817831061" y="145.69208178310618">label9</text></g></g></svg>